<svg xmlns="http://www.w3.org/2000/svg" xmlns:xlink="http://www.w3.org/1999/xlink" preserveAspectRatio="xMidYMid" width="31" height="35" viewBox="0 0 31 35"><defs><style>.cls-2{fill:#fff}</style></defs><path d="M22.51 34.999C20.494 34.999 18.233 34.258 15.901 32.804 11.439 30.024 7.095 24.325 6.912 24.084 6.741 23.868 2.312 18.234.751 13.236-.497 9.24-.166 5.83 1.682 3.634 2.064 3.179 7.953-1.052 10.173.256 12.038 1.354 13.939 9.379 13.128 11.271 12.548 12.623 10.91 13.213 9.594 13.687 9.496 13.723 9.389 13.762 9.282 13.801 10.091 15.266 12.156 18.328 13.013 19.436 13.871 20.543 16.319 23.312 17.538 24.465 17.603 24.372 17.669 24.279 17.727 24.194 18.526 23.051 19.52 21.629 20.983 21.419c0 0 0 0 0 0C23.041 21.134 30.35 25.007 30.94 27.08 31.642 29.553 26.017 34.121 25.477 34.372 24.574 34.791 23.576 34.998 22.51 34.999zM8.903 2.513C7.724 2.661 4.273 4.633 3.599 5.289 2.355 6.77 2.195 9.339 3.178 12.488 4.601 17.045 8.883 22.49 8.926 22.545 8.984 22.621 13.19 28.135 17.251 30.665 20.061 32.417 22.602 32.92 24.402 32.084 25.173 31.625 27.973 28.817 28.42 27.722 27.42 26.59 22.51 23.927 21.334 23.921 20.942 24.021 20.153 25.149 19.814 25.634 19.124 26.622 18.59 27.407 17.607 27.366 15.94 27.301 11.049 21.038 11 20.975 10.951 20.912 6.114 14.606 6.478 12.991 6.69 12.048 7.59 11.724 8.728 11.314 9.294 11.11 10.619 10.633 10.791 10.281 11.094 9.218 9.753 3.769 8.903 2.513zM28.539 27.879c0 0 0 0 0 0 0 0 0 0 0 0zM21.165 22.668C21.165 22.668 21.171 22.668 21.171 22.668 21.171 22.668 21.165 22.668 21.165 22.668z" id="path-1" class="cls-2" fill-rule="evenodd"/></svg>